Coordinates
version=1
nRows=7
nColumns=40
inDegrees=yes

Units are S.I. units (second, meters, Newtons, ...)
Angles are in degrees.

endheader
time	pelvis_tilt	pelvis_list	pelvis_rotation	pelvis_tx	pelvis_ty	pelvis_tz	hip_flexion_r	hip_adduction_r	hip_rotation_r	knee_angle_r	knee_angle_r_beta	ankle_angle_r	subtalar_angle_r	mtp_angle_r	hip_flexion_l	hip_adduction_l	hip_rotation_l	knee_angle_l	knee_angle_l_beta	ankle_angle_l	subtalar_angle_l	mtp_angle_l	lumbar_extension	lumbar_bending	lumbar_rotation	arm_flex_r	arm_add_r	arm_rot_r	elbow_flex_r	pro_sup_r	wrist_flex_r	wrist_dev_r	arm_flex_l	arm_add_l	arm_rot_l	elbow_flex_l	pro_sup_l	wrist_flex_l	wrist_dev_l
      6.17000000	     -4.26262240	     -4.62650523	     -8.73019458	      0.96541137	      0.92639008	      0.48829507	     19.22781376	      3.62858109	     -5.77520309	     19.17234516	     19.17234516	      5.47414565	      0.07859819	     -4.31654848	     -1.87058303	     -7.05580225	    -12.64511502	     19.64731906	     19.64731906	     20.43480929	     -7.48200267	      1.72410748	     -7.70455786	      8.10390277	      1.13099145	    -16.22704807	    -13.63748519	    -17.00708408	     30.51228305	     46.20442761	      0.00000000	      0.00000000	     39.00229872	    -24.69090594	    -10.81826718	     73.04032437	     48.09286025	      0.00000000	      0.00000000
      6.18942857	     -4.25072242	     -4.66133245	     -8.09668213	      0.96642825	      0.92717283	      0.49215060	     18.58156177	      3.74797636	     -6.27853687	     18.95970902	     18.95970902	      5.90674401	      0.10325578	     -4.21446874	     -1.11022697	     -7.73288643	    -12.11538009	     21.79391504	     21.79391504	     19.94380394	     -7.69602151	      1.11548293	     -7.68674626	      8.04052331	      1.07968318	    -15.35053998	    -13.91082523	    -17.00365477	     30.81133776	     46.19992861	      0.00000000	      0.00000000	     38.40303908	    -23.93952429	    -10.79299965	     72.36182125	     48.07281423	      0.00000000	      0.00000000
      6.20885714	     -4.33419402	     -4.70643774	     -7.42992269	      0.96719439	      0.92773450	      0.49590724	     18.08310414	      3.85949448	     -6.94458843	     18.83140080	     18.83140080	      6.64838239	      0.42188010	     -3.43945924	     -0.05010944	     -8.49432155	    -11.57362817	     24.15416332	     24.15416332	     18.34091699	     -8.22387465	     -2.13136216	     -7.49681847	      8.01278482	      1.13580530	    -14.41253689	    -14.23049754	    -16.71915188	     30.72334998	     46.19585798	      0.00000000	      0.00000000	     38.08786615	    -22.59109525	    -11.41252327	     70.36408728	     48.05957301	      0.00000000	      0.00000000
      6.22828571	     -4.28525573	     -4.72231161	     -6.75105415	      0.96780496	      0.92844875	      0.49952099	     17.35890581	      3.95356813	     -7.55355822	     18.48481471	     18.48481471	      7.02204610	      0.54179187	     -3.48436411	      1.19382383	     -9.15785820	    -10.65108788	     27.11060012	     27.11060012	     17.46491523	     -8.94744899	     -2.90621892	     -7.52780684	      7.90644191	      1.16559586	    -13.43193800	    -14.53708597	    -16.68609464	     30.99879364	     46.19140824	      0.00000000	      0.00000000	     37.09186305	    -21.82958691	    -11.14143322	     69.71426480	     48.01890649	      0.00000000	      0.00000000
      6.24771429	     -4.19129029	     -4.77537678	     -6.05985494	      0.96816736	      0.92903122	      0.50301746	     16.64549644	      4.07661501	     -8.19414697	     18.22521685	     18.22521685	      7.40916568	      0.67726426	     -3.56962166	      2.65858914	     -9.86489785	     -9.66490355	     30.47633083	     30.47633083	     16.38834053	     -9.80651332	     -3.77059211	     -7.61691043	      7.83232088	      1.19208583	    -12.29506574	    -14.83504153	    -16.61528444	     31.20905118	     46.18840776	      0.00000000	      0.00000000	     36.03007985	    -21.01011619	    -10.91721177	     68.79919408	     47.97691361	      0.00000000	      0.00000000
      6.26714286	     -4.21536602	     -4.71270863	     -5.32659885	      0.96823778	      0.92923303	      0.50614137	     16.21147081	      4.01998620	     -9.02701154	     18.20966800	     18.20966800	      7.89031173	      0.99426368	     -3.76466427	      4.39918075	    -10.31780558	     -8.35071657	     33.84021222	     33.84021222	     14.25502287	    -11.60744846	     -6.33075856	     -7.43218082	      7.68251304	      1.00059512	    -10.60166857	    -15.21303099	    -16.08347941	     30.26068241	     46.21079399	      0.00000000	      0.00000000	     35.10294595	    -20.10284410	    -11.00969254	     66.11004406	     47.91743253	      0.00000000	      0.00000000
      6.28657143	     -4.13982821	     -4.80667030	     -4.62083880	      0.96815794	      0.92944004	      0.50924088	     15.57228935	      4.20533231	     -9.58679235	     17.98981937	     17.98981937	      8.29644384	      0.98102046	     -3.83341946	      6.23594956	    -10.96218899	     -7.21794862	     37.57876875	     37.57876875	     12.87863022	    -12.73932133	     -6.84670953	     -7.50081790	      7.66637520	      1.12286904	     -9.33852839	    -15.50606562	    -15.96901694	     30.29173590	     46.21424591	      0.00000000	      0.00000000	     33.64777139	    -19.11904267	    -10.66488756	     65.01604373	     47.85866415	      0.00000000	      0.00000000
